<svg width="240" height="80" viewBox="0 0 240 80" fill="none" xmlns="http://www.w3.org/2000/svg">
  <!-- Background circle -->
  <circle cx="40" cy="40" r="35" fill="#6366f1" opacity="0.1"/>
  
  <!-- Main icon - Book with graduation cap -->
  <g transform="translate(20, 20)">
    <!-- Open book -->
    <path d="M8 12 L20 12 L20 35 L8 35 Z" fill="#6366f1" stroke="#6366f1" stroke-width="1.5" stroke-linejoin="round"/>
    <path d="M20 12 L32 12 L32 35 L20 35 Z" fill="#8b5cf6" stroke="#8b5cf6" stroke-width="1.5" stroke-linejoin="round"/>
    
    <!-- Book spine -->
    <line x1="20" y1="12" x2="20" y2="35" stroke="#4338ca" stroke-width="2"/>
    
    <!-- Pages lines -->
    <line x1="11" y1="18" x2="17" y2="18" stroke="#ffffff" stroke-width="1" opacity="0.7"/>
    <line x1="11" y1="22" x2="17" y2="22" stroke="#ffffff" stroke-width="1" opacity="0.7"/>
    <line x1="11" y1="26" x2="17" y2="26" stroke="#ffffff" stroke-width="1" opacity="0.7"/>
    
    <line x1="23" y1="18" x2="29" y2="18" stroke="#ffffff" stroke-width="1" opacity="0.7"/>
    <line x1="23" y1="22" x2="29" y2="22" stroke="#ffffff" stroke-width="1" opacity="0.7"/>
    <line x1="23" y1="26" x2="29" y2="26" stroke="#ffffff" stroke-width="1" opacity="0.7"/>
    
    <!-- Graduation cap -->
    <path d="M12 8 L28 8 L30 12 L10 12 Z" fill="#1e293b"/>
    <circle cx="20" cy="10" r="1.5" fill="#1e293b"/>
    <line x1="28" y1="10" x2="32" y2="6" stroke="#1e293b" stroke-width="1.5"/>
    <circle cx="32" cy="6" r="1" fill="#1e293b"/>
  </g>
  
  <!-- Text -->
  <text x="90" y="35" font-family="system-ui, -apple-system, sans-serif" font-size="20" font-weight="700" fill="#1e293b">
    Zürich
  </text>
  <text x="90" y="55" font-family="system-ui, -apple-system, sans-serif" font-size="16" font-weight="500" fill="#6366f1">
    Nachhilfe
  </text>
</svg>